<svg xmlns="http://www.w3.org/2000/svg" width="77.468" height="67.444" viewBox="0 0 77.468 67.444">
  <g id="Group_47801" data-name="Group 47801" transform="translate(-12815.267 8661.747)">
    <g id="Group_47746" data-name="Group 47746" transform="translate(12815.266 -8661.748)">
      <g id="Group_47744" data-name="Group 47744" transform="translate(0.001 0.001)">
        <g id="Path_395" data-name="Path 395" transform="translate(3.249 -7.126)" fill="none">
          <path d="M15.175,7.126H54.185l20.033,32.1L54.185,74.571H15.175L-3.249,39.23Z" stroke="none"/>
          <path d="M 23.28197860717773 21.12598419189453 L 12.70735931396484 39.55297470092773 L 23.66434097290039 60.57064819335938 L 46.02870941162109 60.57064819335938 L 57.93119430541992 39.57400512695312 L 46.4194450378418 21.12598419189453 L 23.28197860717773 21.12598419189453 M 15.17462158203125 7.125984191894531 L 54.18543243408203 7.125984191894531 L 74.21893310546875 39.23043441772461 L 54.18543243408203 74.57064819335938 L 15.17462158203125 74.57064819335938 L -3.2490234375 39.23043441772461 L 15.17462158203125 7.125984191894531 Z" stroke="none" fill="#0ad6d6"/>
        </g>
        <g id="Group_47743" data-name="Group 47743" transform="translate(4.481 3.9)">
          <path id="Path_396" data-name="Path 396" d="M.044,2.946,5.015,0,4.836,35.951,0,33.593Z" transform="matrix(0.839, -0.545, 0.545, 0.839, 44.34, 2.731)" fill="#fff"/>
          <path id="Path_397" data-name="Path 397" d="M4.371,33.367,0,35.474.261,0,5.015,2.315Z" transform="translate(17.198 0) rotate(29)" fill="#fff"/>
          <path id="Path_398" data-name="Path 398" d="M4.42,32.388,0,35.314.694,0,5.015,2.088Z" transform="translate(16.469 59.414) rotate(-91)" fill="#fff"/>
        </g>
      </g>
    </g>
  </g>
</svg>
