<svg xmlns="http://www.w3.org/2000/svg" width="123.446" height="107.474" viewBox="0 0 123.446 107.474">
  <g id="Group_47802" data-name="Group 47802" transform="translate(-12815.267 8661.748)" opacity="0.336">
    <g id="Group_47746" data-name="Group 47746" transform="translate(12815.267 -8661.748)">
      <g id="Group_47744" data-name="Group 47744" transform="translate(0 0)">
        <g id="Path_395" data-name="Path 395" transform="translate(3.249 -7.126)" fill="none">
          <path d="M26.109,7.126H88.273L120.2,58.285,88.273,114.6H26.109L-3.249,58.285Z" stroke="none"/>
          <path d="M 34.21658325195312 21.12596893310547 L 12.70733642578125 58.60725784301758 L 34.59892272949219 100.599609375 L 80.11648559570312 100.599609375 L 103.9090118408203 58.62825775146484 L 80.50723266601562 21.12596893310547 L 34.21658325195312 21.12596893310547 M 26.10922241210938 7.125968933105469 L 88.27322387695312 7.125968933105469 L 120.1967544555664 58.28470230102539 L 88.27322387695312 114.599609375 L 26.10922241210938 114.599609375 L -3.249038696289062 58.28470230102539 L 26.10922241210938 7.125968933105469 Z" stroke="none" fill="#0ad6d6"/>
        </g>
        <g id="Group_47743" data-name="Group 47743" transform="translate(7.141 6.215)">
          <path id="Path_396" data-name="Path 396" d="M.071,4.695,7.992,0,7.706,57.289,0,53.531Z" transform="matrix(0.839, -0.545, 0.545, 0.839, 70.657, 4.353)" fill="#fff"/>
          <path id="Path_397" data-name="Path 397" d="M6.965,53.171,0,56.527.416,0,7.992,3.689Z" transform="translate(27.405 0) rotate(29)" fill="#fff"/>
          <path id="Path_398" data-name="Path 398" d="M7.043,51.611,0,56.273,1.105,0,7.992,3.328Z" transform="translate(26.244 94.676) rotate(-91)" fill="#fff"/>
        </g>
      </g>
    </g>
  </g>
</svg>
